<svg width="634" height="535" viewBox="0 0 634 535" fill="none" xmlns="http://www.w3.org/2000/svg">
<path opacity="0.4" fill-rule="evenodd" clip-rule="evenodd" d="M73.6964 236.743V84.5269L292.189 242.884C307.732 254.149 328.755 254.149 344.298 242.884L562.79 84.5269V235.523C571.976 231.423 581.963 229.275 592.112 229.275C604.674 229.291 616.893 232.588 627.624 238.69V44.4764C627.624 8.22418 586.525 -12.7464 557.172 8.5279L318.243 181.696L79.3148 8.52788C49.9615 -12.7465 8.86288 8.22438 8.86288 44.4764V237.286C19.0278 232.04 30.335 229.275 41.8515 229.275C53.0034 229.289 63.8856 231.89 73.6964 236.743ZM73.6964 365.701C72.2615 366.41 70.8003 367.072 69.3148 367.685C56.1699 373.115 41.7101 374.527 27.7631 371.741C21.1494 370.42 14.7918 368.184 8.86288 365.124V481.633C8.86288 506.153 28.7405 526.03 53.2604 526.03H250.971C248.048 520.239 245.906 514.048 244.63 507.616C241.862 493.665 243.291 479.207 248.738 466.069C249.425 464.414 250.171 462.789 250.975 461.197H73.6964V365.701ZM379.358 461.197C384.41 471.184 387.113 482.306 387.113 493.707C387.099 504.977 384.438 516.042 379.396 526.03H583.226C607.746 526.03 627.624 506.153 627.624 481.633V363.758C625.035 365.227 622.347 366.54 619.576 367.685C606.431 373.116 591.971 374.527 578.024 371.741C572.754 370.689 567.647 369.055 562.79 366.887V461.197H379.358ZM190.824 278.626C199.534 273.867 210.362 277.161 216.228 285.166C240.342 318.073 278.603 339.069 321.389 339.069C364.175 339.069 402.437 318.073 426.55 285.166C432.417 277.161 443.244 273.867 451.954 278.626L473.929 290.632C482.638 295.391 485.908 306.366 480.372 314.604C445.839 365.995 387.661 400.052 321.389 400.052C255.117 400.052 196.939 365.995 162.406 314.604C156.871 306.366 160.14 295.391 168.85 290.632L190.824 278.626ZM18.9109 266.794C25.6721 262.264 33.6205 259.846 41.7513 259.846C52.6622 259.86 63.1215 264.217 70.8318 271.961C78.542 279.705 82.8728 290.202 82.8728 301.146C82.8625 309.302 80.4421 317.272 75.9174 324.048C71.3926 330.824 64.9668 336.103 57.4519 339.217C49.937 342.331 41.6705 343.14 33.6972 341.543C25.7238 339.946 18.4015 336.013 12.6558 330.242C6.91002 324.472 2.99872 317.122 1.41625 309.122C-0.166231 301.122 0.651149 292.831 3.76506 285.297C6.87896 277.763 12.1496 271.324 18.9109 266.794ZM314.99 452.267C306.859 452.267 298.911 454.684 292.15 459.214C285.388 463.745 280.118 470.183 277.004 477.717C273.89 485.251 273.073 493.542 274.655 501.542C276.237 509.542 280.149 516.892 285.895 522.663C291.64 528.433 298.963 532.366 306.936 533.963C314.909 535.561 323.176 534.751 330.691 531.637C338.206 528.523 344.631 523.245 349.156 516.468C353.681 509.692 356.101 501.722 356.112 493.566C356.112 482.622 351.781 472.125 344.071 464.381C336.36 456.638 325.901 452.28 314.99 452.267ZM569.05 266.794C575.811 262.264 583.759 259.846 591.89 259.846C602.801 259.86 613.26 264.217 620.971 271.961C628.681 279.705 633.012 290.202 633.012 301.146C633.002 309.302 630.581 317.272 626.056 324.048C621.532 330.824 615.106 336.103 607.591 339.217C600.076 342.331 591.81 343.14 583.836 341.543C575.863 339.946 568.54 336.013 562.795 330.242C557.049 324.472 553.138 317.122 551.555 309.122C549.973 301.122 550.79 292.831 553.904 285.297C557.018 277.763 562.289 271.324 569.05 266.794Z" fill="url(#paint0_linear_4188_69)"/>
<defs>
<linearGradient id="paint0_linear_4188_69" x1="316.667" y1="-8.11899e-08" x2="316.985" y2="561.5" gradientUnits="userSpaceOnUse">
<stop stop-color="#CBCED6"/>
<stop offset="1" stop-color="#DEE2EA" stop-opacity="0"/>
</linearGradient>
</defs>
</svg>
